<svg width="127" height="62" xmlns="http://www.w3.org/2000/svg" xmlns:xlink="http://www.w3.org/1999/xlink" xml:space="preserve" overflow="hidden"><g transform="translate(-236 -440)"><path d="M51.6501 11.3078 51.6501 38.2524 46.3507 38.2524 46.3507 11.2705C46.3507 7.61316 43.701 4.66493 40.4169 4.66493 35.4908 4.66493 31.4976 8.21027 31.4976 12.5766L31.4976 19.1822 26.2356 19.1822 26.2356 0.709069 31.4976 0.709069 31.4976 1.04494C31.4976 1.75401 31.3483 2.5004 31.0498 3.17215L29.8555 5.85915 30.5273 6.12039 31.4603 4.0305C31.9827 2.83628 32.9157 1.90329 34.11 1.3435 36.0132 0.522472 38.1778 0.0373194 40.4916 0.0373194 46.6493 0.0746388 51.6501 5.11276 51.6501 11.3078Z" fill="#3C87A6" transform="matrix(1.01281 0 0 1 236 440.025)"/><path d="M81.6922 14.5546 59.0393 14.5546C60.0469 17.988 63.5177 20.4884 67.6974 20.4884 70.3098 20.4884 72.6982 19.4807 74.303 17.876L80.5353 17.876C78.2962 22.1677 73.37 25.116 67.6974 25.116 59.8604 25.116 53.4787 19.5181 53.4787 12.5766 53.4787 5.67255 59.8604 0.0373194 67.6974 0.0373194 74.7508 0.0373194 80.61 4.62761 81.6922 10.5987 81.8165 11.2456 81.8788 11.9049 81.8788 12.5766 81.8788 13.2484 81.8165 13.9077 81.6922 14.5546ZM60.7933 10.5987 76.3182 10.5987C75.3106 7.20265 71.8399 4.66493 67.6974 4.66493 63.7789 4.66493 60.4575 6.90409 59.2632 10.0016 59.114 10.3499 58.9397 10.6858 58.7408 11.0092L57.8078 12.39 58.4049 12.7632 59.3379 11.3824C59.6738 10.8973 60.1962 10.5987 60.7933 10.5987Z" fill="#3C87A6" fill-rule="evenodd" transform="matrix(1.01281 0 0 1 236 440.025)"/><path d="M121.4 0.709069 113.414 24.4815 107.741 24.4815 101.957 7.27729C101.782 6.72992 101.695 6.17013 101.695 5.59791L101.695 3.99318 100.986 3.99318 100.986 5.59791C100.986 6.17013 100.887 6.72992 100.688 7.27729L94.9406 24.4815 89.2681 24.4815 81.2817 0.709069 86.1332 0.709069 91.4699 16.5325C91.6442 17.0799 91.7311 17.6397 91.7311 18.2119L91.7311 21.1601 92.4402 21.1601 92.4402 18.2119C92.4402 17.6397 92.5272 17.0799 92.7014 16.5325L98.0381 0.709069 104.606 0.709069 109.943 16.5325C110.117 17.0799 110.204 17.6397 110.204 18.2119L110.204 21.1601 110.913 21.1601 110.913 18.2119C110.913 17.6397 111.013 17.0799 111.212 16.5325L116.511 0.709069Z" fill="#3C87A6" transform="matrix(1.01281 0 0 1 236 440.025)"/><path d="M23.9217 43.925C23.9217 48.1047 18.6224 51.5008 12.0542 51.5008 5.48595 51.5008 0.186597 48.1047 0.186597 43.925 0.186597 43.8007 0.186597 43.6887 0.186597 43.5891L5.48595 43.5891C5.46106 43.6887 5.44864 43.8007 5.44864 43.925 5.44864 45.567 8.39687 46.8732 12.0542 46.8732 15.7115 46.8732 18.6597 45.567 18.6597 43.925 18.6597 42.2829 15.3383 41.6112 12.0542 40.9394 8.80738 40.305 5.74719 40.0064 3.69462 38.5136 1.90329 37.2448 0.821027 35.5281 0.821027 33.6994 0.821027 29.6689 5.85915 26.4222 12.0542 26.4222 18.2492 26.4222 23.2873 29.6689 23.2873 33.6994L17.988 33.6994C17.988 32.244 15.3383 31.0498 12.0542 31.0498 8.77006 31.0498 6.12039 32.244 6.12039 33.6994 6.12039 35.1549 8.8447 35.6774 12.0542 36.3118 15.3383 36.9835 18.2865 37.1701 20.4137 38.5136 22.5783 39.8945 23.9217 41.7978 23.9217 43.925Z" fill="#3C87A6" transform="matrix(1.01281 0 0 1 236 440.025)"/><path d="M51.6501 37.6926 51.6501 50.8291 46.3507 50.8291 46.3507 37.6553C46.3507 33.998 43.701 31.0498 40.4169 31.0498 35.4908 31.0498 31.4976 34.5951 31.4976 38.9615L31.4976 50.8291 26.2356 50.8291 26.2356 0.709069 31.4976 0.709069 31.4976 27.3925C31.4976 28.1388 31.3483 28.8852 31.0498 29.557L29.8929 32.2067 30.5273 32.5052 31.4603 30.4153C31.9827 29.2211 32.9157 28.2508 34.11 27.7283 36.0132 26.9073 38.1778 26.4222 40.4916 26.4222 46.6493 26.4595 51.6501 31.4976 51.6501 37.6926Z" fill="#3C87A6" transform="matrix(1.01281 0 0 1 236 440.025)"/><path d="M81.6922 40.9394 59.0393 40.9394C60.0469 44.3728 63.5177 46.8732 67.6974 46.8732 70.3098 46.8732 72.6982 45.8656 74.3403 44.2235L80.5726 44.2235C78.2962 48.5152 73.37 51.5008 67.6974 51.5008 59.8604 51.5008 53.516 45.9029 53.516 38.9615 53.516 32.0201 59.8604 26.4222 67.6974 26.4222 74.7508 26.4222 80.61 31.0124 81.6922 36.9835 81.8165 37.6303 81.8788 38.2897 81.8788 38.9615 81.8788 39.6332 81.8165 40.2927 81.6922 40.9394ZM60.7933 36.9835 76.3182 36.9835C75.3106 33.5502 71.8399 31.0498 67.6974 31.0498 63.7789 31.0498 60.4575 33.2889 59.2632 36.3864 59.139 36.7347 58.9647 37.0582 58.7408 37.3567L57.8078 38.7749 58.4049 39.1481 59.3379 37.7673C59.6738 37.2821 60.1962 36.9835 60.7933 36.9835Z" fill="#3C87A6" fill-rule="evenodd" transform="matrix(1.01281 0 0 1 236 440.025)"/><path d="M111.175 40.9394 88.559 40.9394C89.5293 44.3728 93.0373 46.8732 97.1798 46.8732 99.8295 46.8732 102.181 45.8656 103.823 44.2235L110.055 44.2235C107.816 48.5152 102.89 51.5008 97.1798 51.5008 89.3427 51.5008 82.9984 45.9029 82.9984 38.9615 82.9984 32.0201 89.3427 26.4222 97.1798 26.4222 104.27 26.4222 110.13 31.0124 111.175 36.9835 111.299 37.6303 111.361 38.2897 111.361 38.9615 111.361 39.6332 111.299 40.2927 111.175 40.9394ZM90.313 36.9835 105.801 36.9835C104.83 33.5502 101.322 31.0498 97.1798 31.0498 93.2612 31.0498 89.9771 33.2889 88.7456 36.3864 88.6213 36.7347 88.4594 37.0582 88.2604 37.3567L87.3274 38.7749 87.8872 39.1481 88.8202 37.7673C89.1561 37.2821 89.7159 36.9835 90.313 36.9835Z" fill="#3C87A6" fill-rule="evenodd" transform="matrix(1.01281 0 0 1 236 440.025)"/><path d="M125.207 46.8732 125.207 51.5008 121.923 51.5008C117.556 51.5008 114.011 48.5526 114.011 44.8953L114.011 31.0498 112.667 31.0498 112.667 27.0939 114.011 27.0939 114.011 24.4815 119.273 24.4815 119.273 27.0939 124.572 27.0939 124.572 31.0498 120.504 31.0498C120.019 31.0498 119.571 30.8632 119.273 30.5273L118.191 29.4823 117.705 29.9675 118.75 31.0124C119.086 31.3483 119.273 31.7961 119.273 32.2813L119.273 44.8953C119.273 45.9775 120.467 46.8732 121.923 46.8732Z" fill="#3C87A6" transform="matrix(1.01281 0 0 1 236 440.025)"/><path d="M57.9197 55.7552 55.2701 55.7552 55.2701 57.36 57.8451 57.36 57.8451 58.2929 55.2701 58.2929 55.2701 60.4948 57.9197 60.4948 57.9197 61.4278 54.2998 61.4278 54.2998 54.8222 57.9197 54.8222Z" fill="#3C87A6" transform="matrix(1.01281 0 0 1 236 440.025)"/><path d="M59.2259 61.4278 59.2259 54.4117 64.0028 59.4125 64.0028 54.8222 65.0104 54.8222 65.0104 61.801 60.1962 56.8002 60.1962 61.4278Z" fill="#3C87A6" transform="matrix(1.01281 0 0 1 236 440.025)"/><path d="M68.4065 55.7552 68.4065 61.4278 67.3989 61.4278 67.3989 55.7552 65.8688 55.7552 65.8688 54.8222 69.8993 54.8222 69.8993 55.7552Z" fill="#3C87A6" transform="matrix(1.01281 0 0 1 236 440.025)"/><path d="M74.4149 55.7552 71.7653 55.7552 71.7653 57.36 74.3403 57.36 74.3403 58.2929 71.7653 58.2929 71.7653 60.4948 74.4149 60.4948 74.4149 61.4278 70.7949 61.4278 70.7949 54.8222 74.4149 54.8222Z" fill="#3C87A6" transform="matrix(1.01281 0 0 1 236 440.025)"/><path d="M77.923 58.6288 79.9755 61.4278 78.744 61.4278 76.878 58.7408 76.6914 58.7408 76.6914 61.4278 75.7211 61.4278 75.7211 54.8222 76.878 54.8222C77.7487 54.8222 78.3708 54.9965 78.744 55.3447 79.1668 55.6929 79.3784 56.1657 79.3784 56.7628 79.3784 57.2357 79.2541 57.6335 79.0052 57.9571 78.7317 58.3053 78.3708 58.5292 77.923 58.6288ZM76.6914 57.8451 77.0273 57.8451C77.9726 57.8451 78.4454 57.4969 78.4454 56.8002 78.4454 56.1034 77.9853 55.7552 77.0646 55.7552L76.6914 55.7552Z" fill="#3C87A6" fill-rule="evenodd" transform="matrix(1.01281 0 0 1 236 440.025)"/><path d="M82.6998 55.7552 82.6998 61.4278 81.6922 61.4278 81.6922 55.7552 80.1994 55.7552 80.1994 54.8222 84.1926 54.8222 84.1926 55.7552Z" fill="#3C87A6" transform="matrix(1.01281 0 0 1 236 440.025)"/><path d="M88.5963 59.823 85.7973 59.823 85.051 61.4278 83.9687 61.4278 87.2155 54.4117 90.3503 61.4278 89.2681 61.4278ZM88.2231 58.89 87.2155 56.6509 86.2079 58.89Z" fill="#3C87A6" fill-rule="evenodd" transform="matrix(1.01281 0 0 1 236 440.025)"/><path d="M91.2087 54.8222 92.179 54.8222 92.179 61.4278 91.2087 61.4278Z" fill="#3C87A6" transform="matrix(1.01281 0 0 1 236 440.025)"/><path d="M93.7464 61.4278 93.7464 54.4117 98.5606 59.4125 98.5606 54.8222 99.5309 54.8222 99.5309 61.801 94.754 56.8002 94.754 61.4278Z" fill="#3C87A6" transform="matrix(1.01281 0 0 1 236 440.025)"/><path d="M100.874 61.4278 102.293 54.3371 104.532 59.4498 106.883 54.3371 108.114 61.4278 107.107 61.4278 106.472 57.4346 104.532 61.7263 102.628 57.4346 101.919 61.4278Z" fill="#3C87A6" transform="matrix(1.01281 0 0 1 236 440.025)"/><path d="M113.115 55.7552 110.503 55.7552 110.503 57.36 113.041 57.36 113.041 58.2929 110.503 58.2929 110.503 60.4948 113.115 60.4948 113.115 61.4278 109.495 61.4278 109.495 54.8222 113.115 54.8222Z" fill="#3C87A6" transform="matrix(1.01281 0 0 1 236 440.025)"/><path d="M114.421 61.4278 114.421 54.4117 119.236 59.4125 119.236 54.8222 120.206 54.8222 120.206 61.801 115.429 56.8002 115.429 61.4278Z" fill="#3C87A6" transform="matrix(1.01281 0 0 1 236 440.025)"/><path d="M123.602 55.7552 123.602 61.4278 122.632 61.4278 122.632 55.7552 121.102 55.7552 121.102 54.8222 125.132 54.8222 125.132 55.7552Z" fill="#3C87A6" transform="matrix(1.01281 0 0 1 236 440.025)"/></g></svg>